PathFileType	3	(X/Y/Z)	C:\Users\koon_\Desktop\
DataRate	CameraRate	NumFrames	NumMarkers	Units	OrigDataRate	OrigDataStartFrame	OrigNumFrames
100.0	100.0	11	27	mm	100.0	1009	2016	
Frame#	Time	get:LFHD			get:RFHD			get:LBHD			get:RBHD			get:C7			get:T10			get:CLAV			get:STRN			get:RBAK			get:LSHO			get:LUPA			get:LELB			get:LFRA			get:LWRA			get:LWRB			get:LFIN			get:RSHO			get:RUPA			get:RELB			get:RFRA			get:RWRA			get:RWRB			get:RFIN			get:LASI			get:RASI			get:LPSI			get:RPSI			
		X1	Y1	Z1	X2	Y2	Z2	X3	Y3	Z3	X4	Y4	Z4	X5	Y5	Z5	X6	Y6	Z6	X7	Y7	Z7	X8	Y8	Z8	X9	Y9	Z9	X10	Y10	Z10	X11	Y11	Z11	X12	Y12	Z12	X13	Y13	Z13	X14	Y14	Z14	X15	Y15	Z15	X16	Y16	Z16	X17	Y17	Z17	X18	Y18	Z18	X19	Y19	Z19	X20	Y20	Z20	X21	Y21	Z21	X22	Y22	Z22	X23	Y23	Z23	X24	Y24	Z24	X25	Y25	Z25	X26	Y26	Z26	X27	Y27	Z27	
1009	10.08	17.813532	1561.0349	0.67394489	-123.14442	1551.95	-3.9073131	-1.1354344	1561.5558	-160.52382	-129.16422	1529.8146	-169.90282	-36.727509	1340.6047	-199.37624	-21.282742	1126.4264	-237.23711	-40.182598	1267.3634	-3.7830434	-14.921709	1070.8699	36.666985	-103.06193	1255.1541	-229.29759	88.182289	1358.5487	-114.1561	195.11102	1232.2834	-105.63145	233.13864	1035.027	-128.87473	224.49754	909.64154	-48.693394	197.36082	831.3811	-27.962263	251.64452	827.3493	-94.834488	263.5123	765.8457	-15.584095	-173.7829	1322.7035	-120.65932	-263.78757	1098.4601	-113.7626	-262.95163	986.2995	-181.9518	-273.31042	935.41266	-96.031799	-241.33727	790.22168	-57.033218	-277.32104	778.58258	-129.46048	-297.81622	724.32227	-47.947487	121.57727	891.75586	-19.029287	-144.07489	873.21185	-25.345785	31.773598	955.83771	-234.7218	-57.841156	951.79791	-239.50873
1010	10.09	18.318924	1561.057	-7.5860562	-122.56448	1552.1366	-12.061146	-0.66548812	1560.9827	-168.76649	-128.75473	1529.3711	-177.83855	-36.934933	1338.2483	-206.79878	-21.171509	1123.2097	-239.77089	-40.07225	1268.9063	-9.724062	-14.694379	1073.1376	35.597111	-103.12529	1252.0725	-234.84547	87.983086	1357.9176	-122.26767	195.28502	1232.2617	-111.34853	234.16866	1034.6012	-129.57396	225.83781	910.98151	-46.672241	198.95445	832.98541	-24.350019	253.63696	827.95862	-91.01725	265.22638	767.77533	-10.494391	-173.87212	1321.9943	-127.71854	-263.3074	1097.7336	-115.553	-262.49884	984.12341	-181.45694	-272.71909	934.84534	-94.555717	-240.58612	790.26904	-53.217144	-276.59808	777.43109	-125.31456	-296.99905	724.32074	-42.973923	121.97258	891.8631	-15.508794	-143.66293	873.24054	-22.518454	32.635944	954.85803	-231.94409	-56.977295	950.85376	-237.00957
1011	10.1	18.963923	1560.8491	-15.815696	-122.063	1552.1616	-20.096876	-0.20965736	1560.1527	-176.95544	-128.3773	1528.6748	-185.81522	-37.152805	1335.5927	-214.02257	-21.177244	1119.7454	-241.78435	-39.842873	1270.2756	-15.604344	-14.543359	1075.4041	34.303551	-103.20849	1248.7037	-240.12819	87.843781	1357.0162	-130.35789	195.34093	1231.8398	-117.08212	235.05956	1033.9951	-130.40991	227.19994	912.25391	-44.620052	200.61768	834.52899	-20.857948	255.61127	828.53473	-87.074562	267.10385	769.77716	-5.4651642	-173.88651	1321.0635	-134.56641	-262.84418	1096.9023	-117.32822	-262.07718	981.87152	-180.78183	-272.11011	934.29968	-93.009369	-239.85646	790.32996	-49.507858	-275.9371	776.44159	-121.43435	-296.11563	724.32568	-38.193974	122.30978	892.04059	-12.103543	-143.20041	873.30829	-19.617048	33.540283	953.78516	-229.31647	-56.158039	949.93591	-234.63295
1012	10.11	19.556974	1560.4525	-23.860401	-121.44572	1551.974	-28.008469	0.24349804	1559.1128	-185.00659	-127.95384	1527.7979	-193.63138	-37.282497	1332.7439	-221.12357	-21.171486	1116.1448	-243.64191	-39.661453	1271.4199	-21.404856	-14.454918	1077.4392	33.4459	-103.20665	1245.2239	-245.40742	87.787628	1355.8181	-138.31448	195.41992	1231.1002	-122.88352	235.78555	1033.1898	-131.44305	228.52042	913.47107	-42.793919	202.34035	836.07642	-17.462543	257.41931	829.13763	-83.372673	269.12393	771.9787	-0.63307816	-173.86771	1319.9312	-141.18721	-262.51877	1096.0251	-119.066	-261.7561	979.64569	-180.04691	-271.54651	933.67401	-91.410187	-239.05705	790.2533	-45.755959	-275.30496	775.39612	-117.33375	-295.14255	724.29419	-33.554264	122.5773	892.25018	-8.8261976	-142.88152	873.32532	-16.728622	34.352051	952.75647	-226.83501	-55.287148	948.91632	-232.33379
1013	10.12	20.126036	1559.9146	-31.852476	-120.87618	1551.5961	-35.89238	0.72031188	1557.8829	-193.00539	-127.52583	1526.7363	-201.47949	-37.37394	1329.7412	-228.05821	-21.193634	1112.5983	-245.60989	-39.499306	1272.4244	-27.050705	-14.277208	1079.4268	32.470287	-103.22691	1241.5583	-250.19464	87.769882	1354.4232	-146.07742	195.52454	1230.1011	-128.70512	236.35475	1032.1962	-132.54723	229.81526	914.62439	-41.164593	204.0976	837.5401	-14.095565	259.10818	829.62799	-79.927681	271.30496	774.26001	3.9807754	-173.79219	1318.6573	-147.87178	-262.23843	1095.1733	-120.85453	-261.48724	977.44293	-179.16052	-270.96207	933.07556	-89.768364	-238.17262	790.18567	-41.974464	-274.73444	774.53021	-113.38706	-294.1593	724.19836	-28.709335	122.79319	892.52222	-5.611434	-142.51537	873.36072	-14.089005	35.283047	951.55859	-224.31412	-54.513714	947.83362	-230.12099
1014	10.13	20.70837	1559.1674	-39.773354	-120.33701	1551.046	-43.676186	1.2471215	1556.4406	-200.86272	-127.10876	1525.3918	-208.91422	-37.408459	1326.4332	-234.57082	-21.174122	1108.8518	-247.11461	-39.250778	1273.2227	-32.61409	-14.159383	1081.4122	31.598537	-103.13335	1237.8248	-255.03365	87.794106	1352.7404	-153.76747	195.63988	1228.8453	-134.56744	236.81424	1031.0343	-133.82295	231.18034	915.67267	-39.665943	205.90805	838.98273	-10.75965	260.64648	830.08856	-76.591789	273.62076	776.62415	8.3089838	-173.67352	1317.1627	-154.44609	-261.9819	1094.229	-122.59898	-261.25885	975.25714	-178.23097	-270.39328	932.44324	-87.987274	-237.158	790.05188	-38.328178	-274.30338	773.61877	-109.22469	-292.95416	724.11041	-23.8132	122.97193	892.8299	-2.627403	-142.30171	873.3114	-11.334775	36.037075	950.4024	-221.98407	-53.699883	946.67584	-228.17976
1015	10.14	21.349331	1558.2568	-47.546894	-119.66573	1550.326	-51.387508	1.7847129	1554.8307	-208.65434	-126.54807	1523.9603	-216.73425	-37.469528	1323.0343	-241.03926	-21.097019	1105.1539	-248.77505	-38.960258	1273.9121	-38.010731	-14.170639	1083.1442	30.925121	-102.92148	1234.1014	-259.81818	87.825661	1350.8906	-161.25256	195.81493	1227.3661	-140.3903	237.1208	1029.735	-135.16171	232.48441	916.61475	-38.404106	207.75743	840.4281	-7.5758176	262.08997	830.46381	-73.545708	276.01535	779.04816	12.367001	-173.49394	1315.5393	-160.63469	-261.78058	1093.2054	-124.25597	-261.00394	973.05756	-177.24792	-269.87689	931.8833	-86.117546	-236.16545	790.04486	-34.751373	-273.98886	772.82953	-105.0747	-291.70322	724.099	-18.992033	123.07108	893.19269	0.31944937	-142.29915	873.71973	-8.7099333	36.838505	949.02295	-219.78729	-53.217445	945.68732	-226.15175
1016	10.15	21.954731	1557.1963	-55.181931	-119.09581	1549.4513	-58.966991	2.325953	1553.048	-216.31953	-126.10359	1522.3651	-224.21867	-37.424068	1319.5635	-247.30363	-21.009886	1101.4985	-250.34633	-38.66148	1274.3954	-43.200031	-14.088436	1084.8402	30.114765	-102.67392	1230.1628	-264.08405	87.818909	1348.7634	-168.543	195.90106	1225.7318	-146.15665	237.37035	1028.3149	-136.50977	233.86755	917.4939	-37.1241	209.60085	841.89398	-4.4170346	263.36667	830.78418	-70.660622	278.3876	781.38495	16.225454	-173.30243	1313.7789	-166.88307	-261.53445	1092.1317	-125.89761	-260.71725	970.92725	-176.2025	-269.35284	931.35187	-84.478081	-235.16057	790.00201	-31.08704	-273.80954	772.14941	-100.86813	-290.44232	724.05701	-14.01106	123.12234	893.54163	3.1195142	-142.22697	873.83807	-6.3055005	37.528793	947.63489	-217.74025	-52.497242	944.21912	-224.29173
1017	10.16	22.617636	1556.0013	-62.787182	-118.46949	1548.422	-66.465057	2.8524058	1551.0615	-223.90675	-125.60837	1520.5063	-231.46152	-37.370186	1316.0461	-253.35312	-20.896452	1097.863	-251.76076	-38.393856	1274.6525	-48.252907	-14.045615	1086.4712	29.10285	-102.35064	1226.405	-268.56577	87.878006	1346.4713	-175.54095	196.04131	1223.9095	-151.82164	237.53506	1026.8367	-137.72296	235.28035	918.27173	-35.984356	211.492	843.31763	-1.3334149	264.61246	831.07947	-67.968422	280.74612	783.63074	19.853006	-173.02417	1311.9156	-172.94138	-261.31735	1091.1337	-127.56684	-260.38687	968.8396	-175.24585	-268.84503	930.89093	-82.719536	-234.1571	790.18262	-27.629427	-273.71298	771.66919	-96.653625	-289.08752	724.14362	-8.9091711	123.15784	893.86041	5.7897792	-142.23994	873.92737	-3.9307094	38.137188	946.11835	-215.71544	-51.912029	942.5752	-222.47137
1018	10.17	23.207603	1554.6293	-70.352448	-117.85043	1547.2965	-73.864761	3.4218636	1548.8342	-231.34615	-125.12701	1518.4384	-238.53192	-37.28804	1312.4009	-259.1517	-20.686962	1094.2255	-253.06618	-38.102615	1274.7474	-53.178875	-13.898669	1087.8878	28.216314	-101.95844	1222.4163	-272.60349	87.864853	1343.9967	-182.39772	196.17914	1221.9305	-157.35457	237.61514	1025.3062	-139.01743	236.6532	919.04169	-34.830868	213.24414	844.70551	1.6645473	265.68219	831.32788	-65.306572	282.95572	785.73889	23.286369	-172.76384	1309.9078	-178.74756	-261.15823	1089.9958	-128.53511	-259.91931	966.76068	-174.37442	-268.38214	930.61389	-81.160385	-233.22411	790.36975	-24.002632	-273.62955	771.31329	-92.509254	-287.80774	724.46625	-4.0042486	123.24355	894.23669	8.3893356	-142.19374	874.12152	-1.644852	38.718723	944.61371	-213.83412	-51.367756	940.8656	-220.73022
1019	10.18	23.856386	1553.1351	-77.762115	-117.24126	1545.9852	-81.165924	3.9199162	1546.4489	-238.68938	-124.66603	1516.2391	-245.74983	-37.191574	1308.6683	-264.98129	-20.444647	1090.5448	-254.19232	-37.824211	1274.7003	-58.024918	-13.776035	1089.2211	27.248432	-101.57033	1218.4586	-276.59689	87.815849	1341.3838	-189.07405	196.27863	1219.8748	-162.74051	237.72362	1023.7115	-140.13855	237.99712	919.78558	-33.732224	214.93959	846.1557	4.4648914	266.8663	831.62677	-62.708237	284.92969	787.77759	26.60652	-172.46478	1307.8065	-184.53114	-260.7482	1088.8173	-131.20459	-259.4343	964.771	-173.58165	-267.9606	930.34937	-79.784065	-232.38289	790.73242	-20.527288	-273.60236	771.02411	-88.426651	-286.52768	724.73248	1.1119416	123.34555	894.5462	10.895065	-142.08104	874.37012	0.5635069	39.242229	943.04932	-212.05675	-50.801521	939.19397	-219.13406
